# File created by Blade
# Date/Time:  Mon Sep 22 21:09:19 2014
# Frame Rate: 120.000 fps
#------------------------------------------------------
:FULLY-SPECIFIED
:DEGREES
2822
root 7.441645 32.794709 -7.925132 37.410145 -24.578869 -29.537559
Spine -33.142371 -9.773439 27.883653
Head 13.146006 -3.530385 2.398029
LeftShoulder -0.342993 37.999843 33.469753
LeftArm 93.993699 27.252662 -38.420199
LeftForeArm -27.141972 -0.000000 84.537844
LeftHand -21.805160 0.000000 -3.265009
LeftHandThumb1 -26.253704 0.000000 33.147579
RightShoulder -14.198987 -50.060195 -13.382321
RightArm 61.813928 -13.168022 53.406724
RightForeArm 58.606716 -0.000000 92.016386
RightHand 2.660933 -0.000000 20.491310
RightHandThumb1 -24.326973 -0.000000 -32.862282
LeftUpLeg -34.407338 9.028170 18.412705
LeftLeg 32.457944 -0.000000 -0.000000
LeftFoot -18.834357 13.417873 6.401914
LeftToeBase -2.464008 -0.000000 0.000000
RightUpLeg -171.591665 -16.899845 26.955082
RightLeg 54.738332 -0.000000 -0.000000
RightFoot 40.076901 -20.087335 4.626226
RightToeBase 44.271893 -0.000000 -0.000000
2823
root 7.476044 32.787257 -7.970821 37.700012 -25.006464 -29.540493
Spine -33.066259 -9.495445 27.691582
Head 12.974280 -3.346003 2.766295
LeftShoulder -0.451338 38.096980 33.450051
LeftArm 94.055032 27.180168 -38.205408
LeftForeArm -27.260443 -0.000000 84.524237
LeftHand -21.966723 -0.000000 -3.193447
LeftHandThumb1 -26.253704 0.000000 33.147579
RightShoulder -14.382098 -50.175857 -13.157767
RightArm 61.948010 -13.212307 53.416499
RightForeArm 58.623480 -0.000000 91.990448
RightHand 2.662840 -0.000000 20.530670
RightHandThumb1 -24.326973 -0.000000 -32.862282
LeftUpLeg -34.694375 9.027280 18.203829
LeftLeg 32.574186 -0.000000 -0.000000
LeftFoot -18.502895 14.036173 6.845178
LeftToeBase -2.626347 -0.000000 0.000000
RightUpLeg -171.308829 -16.095480 26.642177
RightLeg 56.720781 -0.000000 -0.000000
RightFoot 39.854137 -20.272008 4.777653
RightToeBase 44.293212 -0.000000 -0.000000
2824
root 7.508974 32.781676 -8.017027 37.992589 -25.421684 -29.571134
Spine -32.973161 -9.207545 27.506129
Head 12.793190 -3.263320 3.109526
LeftShoulder -0.492559 38.114470 33.457130
LeftArm 94.048824 27.180898 -38.057286
LeftForeArm -27.340709 -0.000000 84.547828
LeftHand -21.777421 -0.000000 -3.080152
LeftHandThumb1 -26.253704 0.000000 33.147579
RightShoulder -14.725604 -50.282807 -12.734921
RightArm 62.162258 -13.177183 53.316116
RightForeArm 58.590993 -0.000000 91.873552
RightHand 2.609206 -0.000000 20.686108
RightHandThumb1 -24.326973 -0.000000 -32.862282
LeftUpLeg -34.996688 9.108251 17.986080
LeftLeg 32.727956 -0.000000 -0.000000
LeftFoot -18.141683 14.591788 7.280768
LeftToeBase -2.845815 -0.000000 0.000000
RightUpLeg -171.040933 -15.263233 26.375409
RightLeg 58.780728 -0.000000 -0.000000
RightFoot 39.814053 -20.229602 4.798295
RightToeBase 44.270792 -0.000000 -0.000000
2825
root 7.543890 32.777544 -8.063858 38.354515 -25.812473 -29.606541
Spine -32.972490 -8.944910 27.390166
Head 12.649054 -3.098195 3.440887
LeftShoulder -0.529982 38.218516 33.429759
LeftArm 94.044462 27.139017 -37.990873
LeftForeArm -27.362065 0.000000 84.524822
LeftHand -21.873031 0.000000 -3.295553
LeftHandThumb1 -26.253704 0.000000 33.147579
RightShoulder -14.947151 -50.274795 -12.459849
RightArm 62.330687 -13.188415 53.209353
RightForeArm 58.673262 0.000000 91.682821
RightHand 2.616102 -0.000000 20.843270
RightHandThumb1 -24.326973 -0.000000 -32.862282
LeftUpLeg -35.395200 9.288535 17.727666
LeftLeg 32.910866 -0.000000 -0.000000
LeftFoot -17.793317 15.074753 7.617726
LeftToeBase -3.117285 -0.000000 0.000000
RightUpLeg -170.856285 -14.362299 26.165487
RightLeg 60.816975 -0.000000 -0.000000
RightFoot 40.012555 -20.389724 4.722968
RightToeBase 44.329347 -0.000000 -0.000000
2826
root 7.576738 32.772638 -8.116721 38.597836 -26.206144 -29.664612
Spine -32.830041 -8.775825 27.271329
Head 12.496432 -2.917951 3.781236
LeftShoulder -0.528626 38.335545 33.423893
LeftArm 94.001399 27.092464 -38.000097
LeftForeArm -27.485849 -0.000000 84.421485
LeftHand -21.631580 -0.000000 -3.573972
LeftHandThumb1 -26.253704 0.000000 33.147579
RightShoulder -15.035742 -50.117203 -12.278671
RightArm 62.404742 -13.218453 53.182959
RightForeArm 58.467398 0.000000 91.436428
RightHand 2.377045 -0.000000 21.082155
RightHandThumb1 -24.326973 -0.000000 -32.862282
LeftUpLeg -35.701755 9.447433 17.471871
LeftLeg 33.111065 -0.000000 -0.000000
LeftFoot -17.402146 15.755162 8.080162
LeftToeBase -3.297054 -0.000000 0.000000
RightUpLeg -170.503275 -13.592720 25.904618
RightLeg 62.742035 -0.000000 -0.000000
RightFoot 40.365625 -20.716549 5.165935
RightToeBase 44.122275 -0.000000 -0.000000
2827
root 7.615017 32.767948 -8.168676 38.844506 -26.612328 -29.756315
Spine -32.653819 -8.577456 27.194319
Head 12.366645 -2.795144 4.033299
LeftShoulder -0.452563 38.397780 33.427730
LeftArm 93.883421 27.099277 -38.058775
LeftForeArm -27.821832 0.000000 84.299192
LeftHand -21.547156 -0.000000 -3.438557
LeftHandThumb1 -26.253704 0.000000 33.147579
RightShoulder -15.114858 -49.894783 -12.177057
RightArm 62.451227 -13.302034 53.112597
RightForeArm 58.143272 -0.000000 91.196008
RightHand 2.282846 -0.000000 21.232442
RightHandThumb1 -24.326973 -0.000000 -32.862282
LeftUpLeg -36.022548 9.727196 17.157336
LeftLeg 33.324454 -0.000000 -0.000000
LeftFoot -17.003678 16.438877 8.547708
LeftToeBase -3.504467 -0.000000 0.000000
RightUpLeg -170.085561 -12.861256 25.673997
RightLeg 64.553274 -0.000000 -0.000000
RightFoot 40.657132 -20.470575 5.444424
RightToeBase 44.218819 -0.000000 -0.000000
2828
root 7.656638 32.763030 -8.219668 39.068547 -27.010299 -29.793295
Spine -32.500490 -8.448230 27.126932
Head 12.235457 -2.541667 4.246796
LeftShoulder -0.450744 38.496497 33.357854
LeftArm 93.804539 27.053514 -38.044599
LeftForeArm -28.061425 0.000000 84.155396
LeftHand -21.599266 -0.000000 -3.760324
LeftHandThumb1 -26.253704 0.000000 33.147579
RightShoulder -15.038987 -49.753018 -12.213412
RightArm 62.511704 -13.403303 53.027420
RightForeArm 58.036348 0.000000 91.032248
RightHand 2.154354 -0.000000 21.146707
RightHandThumb1 -24.326973 -0.000000 -32.862282
LeftUpLeg -36.333808 10.001159 16.744314
LeftLeg 33.430642 -0.000000 -0.000000
LeftFoot -16.542324 17.262421 8.947612
LeftToeBase -3.887189 -0.000000 0.000000
RightUpLeg -169.675283 -12.257763 25.387149
RightLeg 66.258088 -0.000000 -0.000000
RightFoot 40.846656 -20.166404 6.014928
RightToeBase 44.080088 -0.000000 -0.000000
